# xmcd
#
# Track frame offsets:
#	150
#	14368
#	24536
#	34447
#	46213
#	57334
#	65279
#	79717
#	88788
#	103223
#	113895
#	125168
#	135217
#	145093
#	154435
#	168650
#	179545
#	189628
#	199831
#	210566
#	217458
#	232395
#	247046
#	258964
#	269582
#
# Disc length: 3707 seconds
#
# Revision: 0
# Processed by: cddbd v1.5PL3 Copyright (c) Steve Scherf et al.
# Submitted via: dBpowerAMP V4.0
#
DISCID=890e7919
DTITLE=The Country Chorale - Christmas In The Country
DYEAR=2001
DGENRE=Country
TTITLE0=Silent Night
TTITLE1=Up On The Housetop
TTITLE2=Chipmunk Song
TTITLE3=Let It Snow
TTITLE4=We Three Kings
TTITLE5=Deck The Halls
TTITLE6=The Most Wonderful Day Of The Year
TTITLE7=Hark! The Herald Angels Sing
TTITLE8=The 12 Days Of Christmas
TTITLE9=Fum Fum Fum
TTITLE10=Good King Wenceslas
TTITLE11=Christ Was Born On Christmas Day
TTITLE12=The Friendly Beasts
TTITLE13=Good Christian Men Rejoice!
TTITLE14=Home For The Holidays
TTITLE15=The Little Drummer Boy
TTITLE16=All Through The Night
TTITLE17=Once In Royal David's City
TTITLE18=Ding Dong Merrily On High
TTITLE19=Carol Of The Bells
TTITLE20=It Must Be Santa
TTITLE21=Grandma Got Run Over By A Reindeer
TTITLE22=The Christmas Song
TTITLE23=Angels From The Realms Of Glory
TTITLE24=Auld Lang Syne
EXTD=Sounds Of The Season
EXTT0=
EXTT1=
EXTT2=
EXTT3=
EXTT4=
EXTT5=
EXTT6=
EXTT7=
EXTT8=
EXTT9=
EXTT10=
EXTT11=
EXTT12=
EXTT13=
EXTT14=
EXTT15=
EXTT16=
EXTT17=
EXTT18=
EXTT19=
EXTT20=
EXTT21=
EXTT22=
EXTT23=
EXTT24=
PLAYORDER=
